<svg width="56" height="12" viewBox="0 0 56 12" xmlns="http://www.w3.org/2000/svg">
  <path d="M0 2.357C3.11 1.8 6.222 1.244 9.333 1.244c3.11 0 6.223 1.11 9.334 2.494C21.777 5.123 24.89 9.556 28 9.556c3.11 0 6.222-8.434 9.333-8.434 3.11 0 6.223 2.604 9.334 2.604C49.777 3.726 52.89 2.363 56 1v11H0z" fill="rgba(217, 227, 237, 0.5)"/>
  <path d="M0 2.357C3.11 1.8 6.222 1.244 9.333 1.244c3.11 0 6.223 1.11 9.334 2.494C21.777 5.123 24.89 9.556 28 9.556c3.11 0 6.222-8.434 9.333-8.434 3.11 0 6.223 2.604 9.334 2.604C49.777 3.726 52.89 2.363 56 1" stroke="#193652" fill="none"/>
  <path d="M0 7.673c3.11-.623 6.222-1.246 9.333-1.246 3.11 0 6.223 3.13 9.334 3.13 3.11 0 6.222-4.475 9.333-4.475 3.11 0 6.222 2.714 9.333 2.714 3.11 0 6.223-1.094 9.334-1.504 3.11-.41 6.222-.68 9.333-.953V12H0z" fill="rgba(199, 228, 255, 0.5)"/>
  <path d="M0 7.673c3.11-.623 6.222-1.246 9.333-1.246 3.11 0 6.223 3.13 9.334 3.13 3.11 0 6.222-4.475 9.333-4.475 3.11 0 6.222 2.714 9.333 2.714 3.11 0 6.223-1.094 9.334-1.504 3.11-.41 6.222-.68 9.333-.953" stroke="#004585" fill="none"/>
</svg>
