<svg width="56" height="12" viewBox="0 0 56 12" xmlns="http://www.w3.org/2000/svg">
  <path d="M0 5.12c3.11-.99 6.222-1.982 9.333-1.982 3.11 0 6.223 4.975 9.334 4.975C21.777 8.113 24.89 1 28 1c3.11 0 6.222 4.314 9.333 4.314 3.11 0 6.223-1.74 9.334-2.39 3.11-.65 6.222-1.083 9.333-1.516V12H0z" fill="rgba(199, 228, 255, 0.5)"/>
  <path d="M0 5.12c3.11-.99 6.222-1.982 9.333-1.982 3.11 0 6.223 4.975 9.334 4.975C21.777 8.113 24.89 1 28 1c3.11 0 6.222 4.314 9.333 4.314 3.11 0 6.223-1.74 9.334-2.39 3.11-.65 6.222-1.083 9.333-1.516" stroke="#004585" fill="none"/>
</svg>
